<svg width="120" height="45" viewBox="0 0 120 45" fill="none" xmlns="http://www.w3.org/2000/svg">
<g clip-path="url(#clip0_193_2065)">
<path d="M69.6377 24.0906C69.6377 31.0398 66.1697 35.7807 60.0544 35.7807C56.4162 35.7807 53.6604 34.0511 52.2361 30.731L51.4 35.3792H46.291V30.592V4.75635H52.4218V17.1414C53.9236 14.1301 56.5555 12.5395 60.0544 12.5395C66.1852 12.5395 69.6377 17.2804 69.6377 24.0906ZM63.4759 24.0906C63.4759 20.0137 61.4323 17.6201 57.9334 17.6201C54.4654 17.6201 52.4373 20.0137 52.4373 24.0906C52.4373 28.291 54.4809 30.6846 57.9334 30.6846C61.4323 30.6846 63.4759 28.291 63.4759 24.0906Z" fill="white"/>
<path d="M86.4043 35.3792V12.9409H92.5351V35.3792H86.4043Z" fill="white"/>
<path d="M120 24.1832C120 31.0397 116.532 35.7806 110.417 35.7806C106.918 35.7806 104.286 34.19 102.784 31.1787V43.0232H96.6533V17.7127V12.9254H101.762L102.598 17.5737C104.069 14.2535 106.763 12.5239 110.417 12.5239C116.532 12.5394 120 17.2803 120 24.1832ZM113.823 24.1832C113.823 20.0291 111.779 17.6355 108.28 17.6355C104.812 17.6355 102.784 20.0291 102.784 24.1832C102.784 28.3064 104.828 30.6845 108.28 30.6845C111.795 30.6845 113.823 28.2909 113.823 24.1832Z" fill="white"/>
<path d="M92.9995 9.68266C93.2317 9.18849 93.3556 8.648 93.3556 8.07662C93.3556 5.93008 91.6061 4.18506 89.4542 4.18506C87.3022 4.18506 85.5527 5.93008 85.5527 8.07662C85.5527 8.648 85.6921 9.18849 85.9088 9.68266H92.9995Z" fill="white"/>
<path d="M78.2295 30.0669H83.7255V35.3792H80.4898C74.6377 35.3792 72.0986 32.7694 72.0986 25.8202V4.75635H78.2295V25.99V30.0669Z" fill="white"/>
<path d="M20.3277 0C7.0907 0 0 4.9571 0 17.929C0 29.511 5.976 38.3905 20.3277 38.3905C20.6838 38.3905 21.3805 38.3905 21.3805 38.3905C21.3805 40.0738 21.3805 42.2358 21.3805 44.0889C21.3805 44.5522 21.752 44.9846 22.3094 44.9846C22.7429 44.9846 22.8667 44.8147 23.2228 44.5213C25.7464 42.3439 33.2086 35.5954 33.2086 35.5954C36.9243 32.059 40.6554 27.8586 40.6554 17.929C40.6399 4.9571 33.5492 0 20.3277 0Z" fill="#0096FA"/>
</g>
<defs>
<clipPath id="clip0_193_2065">
<rect width="120" height="45" fill="white"/>
</clipPath>
</defs>
</svg>
